<svg id="Capa_1" enable-background="new 0 0 512 512" height="512" viewBox="0 0 512 512" width="512" xmlns="http://www.w3.org/2000/svg"><g><g><path d="m47.056 216.444c0-115.212 93.732-208.944 208.944-208.944s208.944 93.732 208.944 208.944z" fill="#5c586f"/><path d="m464.944 216.444s11.993 150.879-98.094 199.809l-65.468-36.264 24.453-36.019 80.984-127.527h58.125z" fill="#5c586f"/><path d="m47.065 216.444s-11.993 150.879 98.094 199.809l19.634-103.995-59.602-95.814z" fill="#4f4c5f"/><circle cx="424.711" cy="225.276" fill="#ffcabd" r="45.853"/><path d="m279.529 8.833c-7.727-.87-15.574-1.333-23.529-1.333-115.212 0-208.944 93.732-208.944 208.944h71.842c2.369-98.86 69.52-181.673 160.631-207.611z" fill="#4f4c5f"/><path d="m224.308 474.8 51.013-55.514v-75.314h50.513l8.013 23.288s66.006 45.284 66.006 137.241h-205.291z" fill="#e8a882"/><path d="m164.793 343.972 116.871 30.964-18.457 75.585-46.887 32.255-51.527 2.022-14.963-68.544z" fill="#e8a882"/><path d="m130.425 102.31c-27.41 30.139-44.117 70.186-44.117 114.134 0 93.719 75.974 169.693 169.693 169.693s169.693-75.974 169.693-169.693c0-43.949-16.708-83.995-44.117-114.134z" fill="#ffdcce"/><path d="m168.896 362.095c-31.287-38.191-50.067-87.022-50.067-140.243 0-44.031 12.852-85.059 35.005-119.541h-23.41c-19.502 21.444-33.579 47.907-40.082 77.218-1.01-.067-2.027-.105-3.054-.105-25.324 0-45.853 20.529-45.853 45.853s20.529 45.853 45.853 45.853c2.665 0 5.271-.244 7.811-.681 12.961 38.62 39.425 71.046 73.797 91.646z" fill="#ffcabd"/><path d="m446.643 109.27c-3.401-6.026-7.079-11.875-11.017-17.53-5.467-7.85-14.397-12.567-23.963-12.567h-311.326c-9.566 0-18.496 4.717-23.963 12.567-3.938 5.655-7.617 11.504-11.017 17.53-5.133 9.094 1.354 20.35 11.797 20.35h357.692c10.443 0 16.93-11.256 11.797-20.35z" fill="#e8a882"/><ellipse cx="161.326" cy="236.407" fill="#ffb2c1" rx="34.933" ry="27.819"/><ellipse cx="350.674" cy="236.229" fill="#ffb2c1" rx="34.933" ry="27.819"/><ellipse cx="255.988" cy="223.398" fill="#423e4f" rx="15.628" ry="17.923"/><path d="m130.015 504.5h64.546c59.682 0 108.063-48.382 108.063-108.063 0-59.682-48.382-108.063-108.063-108.063h-31.785c-17.796 0-32.222 14.426-32.222 32.222v151.684zm64.547-44.158h-6.354c-7.452 0-13.494-6.041-13.494-13.494v-100.823c0-7.452 6.041-13.494 13.494-13.494h5.384c35.069 0 64.332 27.847 64.867 62.912.545 35.69-28.329 64.899-63.897 64.899z" fill="#f8d070"/><path d="m312.411 439.307c-21.132 0-38.263 17.131-38.263 38.263 0 14.873 12.057 26.93 26.93 26.93h22.666c14.873 0 26.93-12.057 26.93-26.93 0-21.132-17.131-38.263-38.263-38.263z" fill="#ffdcce"/><path d="m221.87 454.195c-8.286 3.934-17.542 6.147-27.308 6.147h-6.354c-7.452 0-13.494-6.041-13.494-13.494v-40.049c-13.176-21.619-20.768-47.014-20.768-74.183 0-15.424 2.456-30.272 6.982-44.187-16.935.959-30.372 14.991-30.372 32.165v151.683l-.54 32.222h64.546c29.756 0 56.701-12.029 76.244-31.486-17.664-3.235-34.189-9.723-48.936-18.818z" fill="#f2c13b"/><path d="m118.683 439.307c-21.132 0-38.263 17.131-38.263 38.263 0 14.873 12.057 26.93 26.93 26.93h22.666c14.873 0 26.93-12.057 26.93-26.93 0-21.132-17.131-38.263-38.263-38.263z" fill="#ffdcce"/><path d="m170.93 79.173h-70.593c-9.566 0-18.496 4.717-23.963 12.567-3.938 5.655-7.617 11.505-11.017 17.53-5.133 9.094 1.354 20.35 11.797 20.35h61.749c8.392-18.294 19.206-35.243 32.027-50.447z" fill="#e3986d"/><g fill="#ffcabd"><path d="m103.694 466.242c0-9.488 2.519-18.382 6.906-26.073-17.249 3.711-30.181 19.042-30.181 37.4 0 14.873 12.057 26.93 26.93 26.93h12.815c-10.137-9.606-16.47-23.188-16.47-38.257z"/><path d="m297.422 466.242c0-9.488 2.519-18.382 6.906-26.073-17.249 3.711-30.181 19.042-30.181 37.4 0 14.873 12.057 26.93 26.93 26.93h12.815c-10.136-9.606-16.47-23.188-16.47-38.257z"/></g></g><g><path d="m198.735 195.732c-3.126-2.719-7.863-2.388-10.581.737-1.642 1.888-4.013 2.972-6.505 2.974-.003 0-.006 0-.009 0-2.488 0-4.858-1.08-6.501-2.962-2.724-3.12-7.462-3.441-10.582-.717s-3.441 7.462-.717 10.583c4.493 5.146 10.98 8.097 17.8 8.097h.024c6.83-.006 13.321-2.97 17.809-8.13 2.718-3.126 2.388-7.863-.738-10.582z"/><path d="m347.366 195.592c-3.126-2.719-7.863-2.389-10.581.737-1.642 1.888-4.013 2.972-6.506 2.974-.003 0-.006 0-.009 0-2.489 0-4.858-1.079-6.502-2.962-2.724-3.12-7.462-3.441-10.583-.717-3.12 2.724-3.441 7.462-.717 10.582 4.493 5.146 10.98 8.097 17.8 8.097h.024c6.829-.006 13.321-2.97 17.809-8.13 2.721-3.125 2.391-7.862-.735-10.581z"/><path d="m255.985 197.976c-.007 0-.014 0-.021 0-12.669.012-23.117 11.244-23.104 25.444.013 14.011 10.387 25.401 23.131 25.4h.021c12.705-.012 23.118-11.29 23.104-25.444-.013-13.718-10.039-25.4-23.131-25.4zm8.13 25.415c.006 6.382-4.236 10.426-8.118 10.43-.002 0-.004 0-.006 0-4.403 0-8.126-4.768-8.132-10.415-.006-6.38 4.233-10.427 8.118-10.43h.006c3.87 0 8.126 4.021 8.132 10.415z"/><path d=""/><path d="m245.418 446.518c13.54-13.748 20.834-31.927 20.54-51.188-.598-39.15-33.262-70.298-72.367-70.298-5.018.027-5.791-.068-7.527.109-10.573 1.077-18.85 10.032-18.85 20.885v100.823c0 11.576 9.418 20.994 20.994 20.994 2.695-.441 32.441 3.823 57.21-21.325zm2.518-68.082c-3.307-.165-6.603-.443-9.887-.808v-16.663c4.341 5.21 7.667 11.054 9.887 17.471zm-24.887-30.254v27.069c-4.35-.9-8.661-1.972-12.918-3.223v-29.538c4.551 1.375 8.887 3.295 12.918 5.692zm0 42.364v54.563c-4.062 2.392-8.395 4.251-12.918 5.546v-63.07c4.267 1.14 8.573 2.14 12.918 2.961zm15 41.756v-39.593c4.26.434 8.539.724 12.829.848.034.665.072 1.33.082 2.001.207 13.549-4.355 26.416-12.911 36.744zm-49.841-92.271c3.332.013 4.227-.032 6.924.038v26.728c-4.387-1.773-8.701-3.727-12.917-5.882v-14.89c-.001-3.305 2.688-5.994 5.993-5.994zm-5.994 106.817v-69.29c4.235 1.938 8.544 3.707 12.917 5.302v69.967c-.19.002-.379.014-.57.014h-6.354c-3.304.001-5.993-2.688-5.993-5.993z"/><path d="m478.064 225.276c0-9.037-2.266-17.552-6.249-25.02-1.898-25.551-8.226-50.235-18.847-73.468.021-.035.044-.068.065-.104 3.837-6.571 3.889-14.459.14-21.102-3.494-6.19-7.327-12.29-11.394-18.129-5.827-8.368-14.796-13.864-24.679-15.356-41.113-45.847-99.649-72.097-161.1-72.097-21.285 0-42.359 3.115-62.635 9.258-3.964 1.201-6.204 5.388-5.003 9.353 1.201 3.964 5.389 6.205 9.353 5.003 18.864-5.716 38.474-8.614 58.285-8.614 52.351 0 102.448 20.47 139.906 56.673h-279.827c15.366-14.883 32.881-27.141 52.252-36.55 3.726-1.81 5.279-6.297 3.469-10.023s-6.298-5.28-10.023-3.469c-25.482 12.378-47.963 29.357-66.884 50.468-9.881 1.494-18.849 6.989-24.675 15.355-4.068 5.842-7.902 11.942-11.394 18.129-3.749 6.642-3.696 14.531.14 21.102.021.036.044.069.065.104-10.621 23.233-16.949 47.917-18.846 73.467-3.983 7.468-6.249 15.983-6.249 25.021 0 8.807 2.158 17.114 5.953 24.443 3.033 44.553 18.043 122.666 83.167 163.28v19.021c-1.44-.137-2.897-.214-4.372-.214-25.234 0-45.763 20.529-45.763 45.763 0 18.985 15.445 34.43 34.431 34.43h292.503c4.142 0 7.5-3.358 7.5-7.5 0-37.397-10.683-67.238-22.678-88.962 17.55-10.174 32.782-23.701 45.35-40.309 2.499-3.303 1.848-8.007-1.456-10.506-3.303-2.499-8.006-1.848-10.506 1.456-11.413 15.082-25.239 27.351-41.166 36.54-8.187-12.28-18.49-24.398-29.718-34.333 17.907-10.796 35.289-25.786 49.175-43.777 10.958-14.198 19.559-29.676 25.689-46.048 11.759.583 23.305-2.71 32.995-9.407-3.028 21.766-9.188 47.677-21.452 71.985-1.866 3.698-.381 8.208 3.317 10.074 3.697 1.865 8.208.381 10.074-3.317 17.543-34.769 23.372-72.29 25.138-98.185 3.793-7.329 5.949-15.632 5.949-24.435zm-51.158 38.279c3.701-13.495 5.696-27.162 6.169-40.762.403-11.567-.29-23.424-2.259-35.355 18.428 3 32.248 18.894 32.248 37.839 0 20.16-15.721 37.079-36.158 38.278zm-119.733 106.831c-5.402-23.351-18.233-45.089-36.977-61.327-20.279-17.568-46.932-28.186-75.634-28.186h-31.785c-18.492 0-34.254 12.808-38.555 30.145-18.826-26.301-29.058-56.768-30.287-88.125-1.202-30.658 6.276-60.383 20.58-85.773h282.971c.078.14.156.28.234.42 1.57 2.816 3.057 5.673 4.452 8.571.058.12.116.239.173.358 18.543 38.758 20.53 82.621 7.452 121.599-15.839 47.198-53.658 85.997-102.624 102.318zm-258.237-145.11c0-18.773 13.638-34.809 32.247-37.839-1.906 11.564-2.697 23.595-2.235 35.822.528 13.852 2.709 27.602 6.202 40.297-20.569-1.156-36.214-18.227-36.214-38.28zm48.59-88.156c-5.509 10.985-10.028 23.07-13.075 34.88-9.407.506-18.681 3.508-26.747 8.904 2.737-15.347 7.254-30.274 13.51-44.624 4.736 1.362 6.485.638 26.312.84zm337.32 0h.005c2.072 0 4.182-.323 5.935-.841 6.256 14.35 10.773 29.278 13.51 44.625-8.285-5.542-17.608-8.413-26.747-8.904-2.997-11.607-7.438-23.639-13.075-34.879h20.372zm-362.958-24.163c3.261-5.778 6.841-11.474 10.641-16.93 4.078-5.856 10.735-9.353 17.809-9.353h311.326c7.073 0 13.729 3.497 17.808 9.353 3.798 5.454 7.378 11.15 10.641 16.93 2.326 4.123-.572 9.164-5.266 9.164-16.099 0-333.132 0-357.692 0-4.58-.001-7.646-4.949-5.267-9.164zm-14.925 156.196c9.886 6.811 21.606 10.012 33.046 9.404 7.307 19.553 18.272 38.278 33.046 55.032v61.336c-44.565-32.416-60.558-85.976-66.092-125.772zm30.956 208.417c0-16.963 13.801-30.763 30.764-30.763 16.958 0 30.762 13.807 30.762 30.763 0 10.714-8.716 19.43-19.43 19.43h-22.665c-10.714 0-19.431-8.716-19.431-19.43zm76.527 0c0-.011-.001-.022-.001-.033-.012-17.636-10.136-33.869-26.389-41.434 0-4.918 0-97.159 0-115.508 0-13.631 11.09-24.722 24.722-24.722h31.785c55.336 0 100.563 44.997 100.563 100.563 0 15.21-3.342 30.406-10.521 44.798-6.335 4.852-11.263 11.241-14.34 18.508-.02.047-.038.094-.057.141-.635 1.514-1.262 3.282-1.667 4.65-19.371 21.015-46.41 32.467-73.979 32.467h-36.136c4.046-5.919 6.02-12.728 6.02-19.43zm87.017 19.43c9.323-5.274 15.668-10.7 16.208-11.082.982 3.953 2.818 7.905 4.996 11.082zm49.615 0c-9.375 0-17.22-6.673-19.035-15.519-3.527-17.188 12.629-36.642 33.509-34.515 15.493 1.578 27.622 14.701 27.622 30.604 0 10.773-8.767 19.43-19.43 19.43zm51.077 0c3.984-5.81 6.015-12.641 6.019-19.412 0-.006.001-.012.001-.019 0-25.228-20.524-45.763-45.763-45.763h-.001c-2.752 0-5.706.29-8.052.707 3.904-11.924 5.768-24.297 5.768-36.077 0-3.699-.215-7.785-.528-11.064 8.064-2.558 16.754-6.101 23.408-9.315 32.526 26.316 57.091 70.507 59.193 120.943z"/></g></g></svg>