<?xml version="1.0" encoding="iso-8859-1"?>
<!-- Generator: Adobe Illustrator 18.0.0, SVG Export Plug-In . SVG Version: 6.00 Build 0)  -->
<!DOCTYPE svg PUBLIC "-//W3C//DTD SVG 1.1//EN" "http://www.w3.org/Graphics/SVG/1.1/DTD/svg11.dtd">
<svg version="1.1" id="Capa_1" xmlns="http://www.w3.org/2000/svg" xmlns:xlink="http://www.w3.org/1999/xlink" x="0px" y="0px"
	 viewBox="0 0 472.999 472.999" style="enable-background:new 0 0 472.999 472.999;" xml:space="preserve">
<path d="M337.502,193.345c-12.711-26.871-34.125-53.062-61.928-75.744c-49.102-40.055-52.379-76.992-48.607-110.94
	c0.276-2.487-1.02-4.884-3.252-6.015c-2.229-1.128-4.931-0.757-6.773,0.937c-8.203,7.547-36.926,36.035-62.089,85.72
	c-23.619,46.637-35.161,95.767-33.38,142.077c3.938,102.388,64.442,157.801,124.502,161.858
	c-8.24,40.453-37.038,71.31-37.344,71.634c-2.277,2.404-2.177,6.199,0.226,8.479c1.16,1.101,2.646,1.647,4.129,1.647
	c1.588,0,3.174-0.627,4.354-1.87c1.374-1.448,32.658-34.862,40.884-79.963c31.392-3.596,71.615-39.417,88.833-102.99
	C355.585,256.683,352.371,224.777,337.502,193.345z M133.463,228.92c-1.702-44.277,9.396-91.372,32.096-136.194
	c11.098-21.914,23.796-40.946,35.656-55.999c-2.367,5.885-4.736,12.429-6.917,19.546c-3.517,11.474-6.758,25.322-8.383,40.67
	c-3.802-5.139-5.061-11.58-5.077-11.668c-0.401-2.168-2.489-3.602-4.653-3.205c-2.173,0.398-3.612,2.482-3.214,4.655
	c0.109,0.597,2.629,13.78,12.124,20.573c-0.966,18.293,0.582,38.306,6.694,58.756c-7.564-4.254-15.572-11.405-18.733-14.562
	c-1.561-1.561-4.094-1.561-5.656,0.002c-1.561,1.562-1.562,4.094,0.001,5.656c0.65,0.65,15.252,15.144,27.839,19.182
	c6.472,17.901,13.317,35.438,19.953,52.409c3.093,7.91,6.133,15.686,9.063,23.311c-9.34-2.528-26.745-9.321-41.625-26.828
	c-1.43-1.683-3.954-1.887-5.639-0.457c-1.683,1.431-1.888,3.955-0.457,5.639c19.793,23.286,43.46,29.262,51.145,30.64
	c8.19,21.696,15.256,42.071,19.78,60.707c-10.691-3.933-32.59-13.53-50.351-31.292c-1.561-1.562-4.096-1.562-5.656,0
	c-1.563,1.563-1.563,4.095,0,5.657c22.254,22.254,49.909,32.231,58.056,34.819c3.655,18.136,4.485,34.441,1.09,48.518
	C194.796,377.968,137.21,326.327,133.463,228.92z M335.473,285.039c-11.885,43.882-43.144,89.181-76.567,94.017
	c2.066-9.889,2.291-20.642,1.121-32.15c3.05-2.977,10.443-10.462,18.44-20.575c13.89-17.565,22.401-33.813,25.297-48.292
	c0.434-2.167-0.971-4.274-3.138-4.707c-2.168-0.432-4.272,0.972-4.706,3.138c-4.818,24.084-26.765,49.415-37.23,60.383
	c-2.95-18.104-8.869-37.897-16.355-59.072c5.852-5.729,22.074-24.019,25.403-53.526c0.248-2.195-1.331-4.176-3.526-4.423
	c-2.202-0.253-4.176,1.332-4.423,3.526c-2.608,23.112-14.159,38.895-20.494,45.982c-5.108-13.974-10.784-28.502-16.653-43.511
	c-2.987-7.64-6.017-15.41-9.036-23.255c4.976-4.554,15.993-16.935,19.372-39.645c0.325-2.185-1.183-4.22-3.367-4.545
	c-2.186-0.327-4.22,1.183-4.545,3.368c-2.541,17.071-9.947,27.533-14.595,32.609c-2.848-7.497-5.676-15.052-8.418-22.683
	c-5.108-14.212-7.773-28.313-8.763-41.828c2.657-4.863,12.993-24.018,18.329-37.358c0.82-2.051-0.177-4.379-2.229-5.199
	c-2.05-0.82-4.378,0.176-5.199,2.229c-2.899,7.248-7.457,16.512-11.327,24.032c0.434-20.974,4.489-39.889,9.01-54.7
	c3.738-12.245,8.115-22.849,12.008-31.147c0.578,30.333,11.286,64.264,54.107,99.197c26.428,21.559,46.714,46.31,58.666,71.576
	C340.268,227.255,343.235,256.379,335.473,285.039z"/>
<g>
</g>
<g>
</g>
<g>
</g>
<g>
</g>
<g>
</g>
<g>
</g>
<g>
</g>
<g>
</g>
<g>
</g>
<g>
</g>
<g>
</g>
<g>
</g>
<g>
</g>
<g>
</g>
<g>
</g>
</svg>
